<svg xmlns="http://www.w3.org/2000/svg" xmlns:xlink="http://www.w3.org/1999/xlink" width="177.417" height="35.415" viewBox="0 0 180 35.5">
  <defs>
    <clipPath id="clip-path">
      <rect id="Rectangle_4014" data-name="Rectangle 4014" width="34.748" height="35.5" rx="15" fill="none"/>
    </clipPath>
    <linearGradient id="linear-gradient" x1="1" x2="0" y2="0.983" gradientUnits="objectBoundingBox">
      <stop offset="0" stop-color="#ff5f7a"/>
      <stop offset="1" stop-color="#f5ac1c"/>
    </linearGradient>
    <filter id="Path_2358" x="0" y="0" width="42.939" height="35.5" filterUnits="userSpaceOnUse">
      <feOffset dy="3" input="SourceAlpha"/>
      <feGaussianBlur stdDeviation="3" result="blur"/>
      <feFlood flood-opacity="0.251"/>
      <feComposite operator="in" in2="blur"/>
      <feComposite in="SourceGraphic"/>
    </filter>
    <linearGradient id="linear-gradient-2" x1="0.768" y1="-0.352" x2="0.169" y2="1.257" xlink:href="#linear-gradient"/>
  </defs>
  <g id="aireIdentity_logo">
    <g id="Group_6847" data-name="Group 6847">
      <rect id="Rectangle_4015" data-name="Rectangle 4015" width="35.415" height="35.415" rx="4" fill="url(#linear-gradient)"/>
      <g transform="matrix(1, 0, 0, 1, -4.42, -1.07)" filter="url(#Path_2358)">
        <path id="Path_2358-2" data-name="Path 2358" d="M24.772,36.058A.661.661,0,0,1,24.84,37a.692.692,0,0,1-.963.066c-2.864-2.441-3.754-6.9-4-8.7h0v0a6.388,6.388,0,0,1-.061-.877,6.282,6.282,0,0,1,1.334-3.866l0,0q.1-.123.2-.241l.017-.02.054-.06.02-.022c.052-.058.1-.115.156-.17h0l.08-.081.015-.014c.046-.047.095-.1.145-.142h0c.031-.029.062-.057.094-.086l.011-.01h0l0,0c.053-.047.1-.088.145-.127h0l.107-.089c.03-.025.061-.048.092-.072l.067-.052.036-.028h0l.066-.049,0,0,0,0,.03-.021c.046-.034.093-.066.141-.1h0l.024-.016.082-.055h0l0,0h0c.06-.039.125-.079.19-.118h0l.027-.016.067-.041c.1-.057.2-.11.3-.162.138-.07.287-.138.455-.208h0l.072-.03h0c.143-.057.3-.112.452-.162h0l.091-.029c.159-.048.319-.09.472-.125l.054-.012.02,0c.186-.04.353-.069.51-.09a.682.682,0,0,1,.768.574.651.651,0,0,1,.006.091.674.674,0,0,1-.591.663c-.121.016-.254.04-.4.071h0l-.057.012q-.184.041-.376.1h0l-.065.021q-.194.061-.364.129l-.05.021c-.142.059-.26.113-.367.167h0c-.079.04-.156.083-.232.126h0l-.076.046c-.05.03-.1.06-.151.093l-.087.059c-.044.029-.088.06-.131.091h0l0,0c-.03.021-.059.043-.087.065h0c-.042.031-.083.064-.124.1h0l-.087.072-.119.1h0l-.081.074c-.041.039-.08.077-.119.116l-.018.018-.056.057c-.042.043-.082.088-.122.133h0l-.059.065,0,0h0c-.059.068-.117.138-.172.21h0l-.014.018a4.969,4.969,0,0,0-.994,3.734v0c.351,2.533,1.488,6.108,3.539,7.864h0l0,0h0l0,0m9.275.833a6.618,6.618,0,0,1-2.769-3.831.682.682,0,0,0-.826-.489.668.668,0,0,0-.5.81,7.99,7.99,0,0,0,3.283,4.587.692.692,0,0,0,.955-.14.662.662,0,0,0-.143-.937m4.737-4.375c-1.523-1.819-1.594-2.874-1.444-3.742a9.139,9.139,0,0,1,.3-1.132q.052-.168.1-.339l.007-.025a7.922,7.922,0,0,0,.439-2.255,7.749,7.749,0,0,0-1.692-4.45.69.69,0,0,0-.947-.184.663.663,0,0,0-.187.93,6.57,6.57,0,0,1,1.461,3.687,6.842,6.842,0,0,1-.383,1.895l-.008.024c-.033.11-.067.219-.1.327a10.269,10.269,0,0,0-.339,1.3c-.275,1.594.244,3.034,1.735,4.816a.692.692,0,0,0,.961.093.661.661,0,0,0,.095-.943m-2.2,2.756c-2.875-2.1-3.174-4.3-3.668-7.944l-.094-.688v0a6.407,6.407,0,0,0-2.863-4.474.691.691,0,0,0-.946.186.654.654,0,0,0-.114.371.666.666,0,0,0,.3.558c.058.038.115.077.172.117a5.066,5.066,0,0,1,2.091,3.389l0,.033h0l.094.686c.5,3.721.869,6.409,4.207,8.843a.691.691,0,0,0,.955-.138.661.661,0,0,0-.141-.937M19.46,23.17A8.809,8.809,0,0,1,24.4,19.6c.264-.06,6.493-1.418,8.483,3.775a.687.687,0,0,0,.879.392.666.666,0,0,0,.4-.862c-2.415-6.3-10-4.626-10.075-4.608A10.06,10.06,0,0,0,18.3,22.464c-1.356,2.2-1.628,4.916-.811,8.081a.684.684,0,0,0,.829.484.668.668,0,0,0,.494-.813c-.723-2.8-.5-5.168.648-7.045m4.23,15.851a8.607,8.607,0,0,1-3.41-4.345.683.683,0,0,0-.826-.487.669.669,0,0,0-.5.81A9.756,9.756,0,0,0,22.9,40.114a.692.692,0,0,0,.951-.159.662.662,0,0,0-.163-.934M16.509,21.5a.692.692,0,0,0,.946-.186c3.1-4.553,8.827-4.628,8.9-4.628a11.153,11.153,0,0,1,6.955,2.447.692.692,0,0,0,.961-.095.661.661,0,0,0-.1-.942A12.54,12.54,0,0,0,26.35,15.35h-.017c-.41,0-6.546.125-10.013,5.224a.662.662,0,0,0,.189.929m-.741,3.689a.669.669,0,0,0-.478-.823.685.685,0,0,0-.839.469,10.568,10.568,0,0,0,1.255,8.968.69.69,0,0,0,.953.135.662.662,0,0,0,.141-.936,9.253,9.253,0,0,1-1.032-7.814M28.8,34.817a.686.686,0,0,0-.863-.423.668.668,0,0,0-.432.847,4.692,4.692,0,0,0,1.049,1.681.692.692,0,0,0,.965,0,.661.661,0,0,0,0-.948,3.436,3.436,0,0,1-.72-1.159m-.958-2.255-.1-.2c-.566-1.093.257-2.722,1.092-3.734a2.31,2.31,0,0,0,.513-1.983,3.1,3.1,0,0,0-1.58-2.12,3.293,3.293,0,0,0-2.752-.038,3.534,3.534,0,0,0-1.847,4.858.689.689,0,0,0,.9.339.665.665,0,0,0,.345-.885,2.608,2.608,0,0,1-.08-1.854,2.181,2.181,0,0,1,2.645-1.294,1.713,1.713,0,0,1,.962,1,1.2,1.2,0,0,1,.039.766,2.2,2.2,0,0,1-.416.653c-1,1.275-1.845,3.348-1.04,4.9l.1.2a.687.687,0,0,0,.741.354.7.7,0,0,0,.177-.06.664.664,0,0,0,.3-.9" transform="translate(-5 -9.35)" fill="#dde6fd"/>
      </g>
    </g>
    <g id="Group_6846" data-name="Group 6846" transform="translate(48.868 5.278)">
      <g id="Group_6845" data-name="Group 6845">
        <path id="Path_2353" data-name="Path 2353" d="M123.753,36.49a10.76,10.76,0,0,1,5.076-1.085c4.337,0,6.364,1.982,6.364,5.946V51.385h-3.664V49.494c-.494.93-1.67,2.015-4.085,2.015-3.067,0-4.864-2.015-4.864-4.586,0-2.939,2.23-4.767,6.5-4.767h2.291V41.2c0-1.642-.712-2.664-3-2.664a8.825,8.825,0,0,0-4.619,1.394Zm5.7,8.143c-2.046,0-3,.961-3,2.121s.742,1.982,2.291,1.982a2.453,2.453,0,0,0,2.63-2.63V44.633Z" transform="translate(-125.58 -29.092)" fill="#dde6fd"/>
        <path id="Path_2354" data-name="Path 2354" d="M168.792,16.122a2.246,2.246,0,1,1-2.231,2.261v-.03a2.222,2.222,0,0,1,2.212-2.231h.018m-1.849,6.532h3.715V38.415h-3.715Z" transform="translate(-155.163 -16.122)" fill="#dde6fd"/>
        <path id="Path_2355" data-name="Path 2355" d="M189.368,38.784a4.1,4.1,0,0,1,3.964-2.912,4.26,4.26,0,0,1,1.055.094v3.591a3.719,3.719,0,0,0-1.582-.3c-2.073,0-3.437,1.888-3.437,4.337V51.7h-3.746l.03-15.758h3.715Z" transform="translate(-167.984 -29.405)" fill="#dde6fd"/>
        <path id="Path_2356" data-name="Path 2356" d="M226.941,50.774A10.1,10.1,0,0,1,222.2,51.8c-5.109,0-8.094-3.382-8.094-7.994,0-5.173,3.221-8.022,7.155-8.022s6.667,2.385,6.667,7.273a17.942,17.942,0,0,1-.218,2.231h-9.843c.558,2.291,2.385,3.5,4.891,3.5a7.134,7.134,0,0,0,4.182-1.231Zm-2.531-8.734c-.094-1.918-1.021-3.334-3.031-3.334-1.67,0-3.188,1.236-3.561,3.806h6.591Z" transform="translate(-187.144 -29.348)" fill="#dde6fd"/>
      </g>
      <path id="Path_2359" data-name="Path 2359" d="M263.13,38.777h1.889V23.459H263.13Zm58.45,0h1.889V23.459H321.58ZM347.9,23.459,345.976,28.6q-2.478,6.677-2.694,7.371L340.248,28.6l-2.136-5.136h-2.167l6.409,14.894q-1.3,3.686-4.613,3.686a4.045,4.045,0,0,1-1.053-.151V43.7a4.479,4.479,0,0,0,1.176.151,6.028,6.028,0,0,0,3.653-1.178,9.252,9.252,0,0,0,2.787-4.29L350,23.459Zm-62.01,2.9A4.448,4.448,0,0,1,289.2,25a4.242,4.242,0,0,1,3.2,1.239,4.6,4.6,0,0,1,1.192,3.323v.695h-9.257a6.122,6.122,0,0,1,1.548-3.9m-1.61-.967a8.31,8.31,0,0,0-1.919,5.8,7.477,7.477,0,0,0,2.183,5.6,7.788,7.788,0,0,0,5.681,2.13,9.774,9.774,0,0,0,4.334-.907V36.148a7.69,7.69,0,0,1-4.241,1.027,6.226,6.226,0,0,1-4.18-1.344,5.463,5.463,0,0,1-1.8-3.882H295.42a8.489,8.489,0,0,0,.124-1.632,7.377,7.377,0,0,0-1.7-5.2,5.936,5.936,0,0,0-4.582-1.843,6.421,6.421,0,0,0-4.985,2.115m15.139.7V23.459h-1.889V38.777h1.889V30.317a5.333,5.333,0,0,1,1.393-3.882A4.459,4.459,0,0,1,304.12,25a3.294,3.294,0,0,1,2.446.936,3.7,3.7,0,0,1,.929,2.719V38.777h1.888V28.082a4.739,4.739,0,0,0-1.362-3.5,4.9,4.9,0,0,0-3.622-1.359,5.132,5.132,0,0,0-4.984,2.87m13.622-6.465v3.837h-2.57V25.03h2.57v9.426q0,4.472,4.458,4.472a3.764,3.764,0,0,0,2.074-.574V36.481a3.258,3.258,0,0,1-2.105.695q-2.507,0-2.508-2.629V25.03h4.489V23.459h-4.489V19.622Zm15.015,0v3.837h-2.57V25.03h2.57v9.426q0,4.472,4.458,4.472a3.763,3.763,0,0,0,2.074-.574V36.481a3.258,3.258,0,0,1-2.105.695q-2.508,0-2.508-2.629V25.03h4.489V23.459H329.97V19.622ZM270.328,35.6a6.7,6.7,0,0,1-1.316-4.29,7.184,7.184,0,0,1,1.363-4.7,4.3,4.3,0,0,1,3.467-1.647,4.222,4.222,0,0,1,1.5.287,5.194,5.194,0,0,1,1.517.936,4.63,4.63,0,0,1,1.238,1.9,8.23,8.23,0,0,1,.48,2.946q0,3.353-1.455,4.789a4.768,4.768,0,0,1-3.468,1.435,4.071,4.071,0,0,1-3.328-1.662m8.25-18.187v8.338a5.5,5.5,0,0,0-4.8-2.538,6.056,6.056,0,0,0-4.861,2.251,8.739,8.739,0,0,0-1.888,5.815,8.618,8.618,0,0,0,1.764,5.484,5.9,5.9,0,0,0,4.923,2.25,5.451,5.451,0,0,0,4.861-2.477v2.236h1.888V17.417Zm-15.448.227a1.266,1.266,0,0,0-.371.922,1.214,1.214,0,0,0,.371.906,1.278,1.278,0,0,0,.929.363,1.332,1.332,0,0,0,.944-.363,1.191,1.191,0,0,0,.387-.906,1.241,1.241,0,0,0-.387-.922,1.3,1.3,0,0,0-.944-.377,1.251,1.251,0,0,0-.929.377m58.45,0a1.266,1.266,0,0,0-.371.922,1.214,1.214,0,0,0,.371.906,1.277,1.277,0,0,0,.929.363,1.333,1.333,0,0,0,.945-.363,1.192,1.192,0,0,0,.386-.906,1.242,1.242,0,0,0-.386-.922,1.3,1.3,0,0,0-.945-.377,1.251,1.251,0,0,0-.929.377" transform="translate(-219.868 -16.9)" fill="url(#linear-gradient-2)"/>
    </g>
  </g>
</svg>